<svg width="100" height="100" viewBox="0 0 100 100" fill="none" xmlns="http://www.w3.org/2000/svg">
<g clip-path="url(#clip0_150_331)">
<path d="M97.9171 86.4996C97.0129 86.4996 96.1817 85.91 95.9171 84.9975L91.1046 68.4766C90.7838 67.3725 91.4171 66.2162 92.5233 65.8954C93.6254 65.5704 94.7838 66.2079 95.1046 67.3141L99.9171 83.835C100.238 84.9391 99.6046 86.0954 98.4983 86.4162C98.3067 86.4725 98.1088 86.4996 97.9171 86.4996Z" fill="black"/>
<path d="M99.913 83.8187L93.663 62.9854C93.3984 62.1042 92.5859 61.5 91.6672 61.5H81.2505C81.9088 61.5 82.5276 61.1896 82.9234 60.6604C83.3151 60.1333 83.4359 59.45 83.2463 58.8187L76.9963 37.9854C76.7317 37.1042 75.9192 36.5 75.0005 36.5H64.5838C65.2422 36.5 65.8609 36.1896 66.2567 35.6604C66.6484 35.1333 66.7692 34.45 66.5797 33.8187L60.3297 12.9854C60.0651 12.1042 59.2526 11.5 58.3338 11.5H41.6672C40.7484 11.5 39.9359 12.1042 39.6713 12.9854L33.4213 33.8187C33.2317 34.45 33.3526 35.1333 33.7443 35.6604C34.1401 36.1896 34.7588 36.5 35.4172 36.5H25.0005C24.0817 36.5 23.2692 37.1042 23.0047 37.9854L16.7547 58.8187C16.5651 59.45 16.6859 60.1333 17.0776 60.6604C17.4734 61.1896 18.0922 61.5 18.7505 61.5H8.33383C7.41508 61.5 6.60258 62.1042 6.338 62.9854L0.0880008 83.8187C-0.101583 84.45 0.0192508 85.1333 0.410917 85.6604C0.806751 86.1896 1.4255 86.5 2.08383 86.5H31.2505C31.9088 86.5 32.5276 86.1896 32.9234 85.6604C33.3151 85.1333 33.4359 84.45 33.2463 83.8187L26.9963 62.9854C26.7318 62.1042 25.9192 61.5 25.0005 61.5H41.6672C40.7484 61.5 39.9359 62.1042 39.6713 62.9854L33.4213 83.8187C33.2317 84.45 33.3526 85.1333 33.7443 85.6604C34.1401 86.1896 34.7588 86.5 35.4172 86.5H64.5838C65.2422 86.5 65.8609 86.1896 66.2567 85.6604C66.6484 85.1333 66.7692 84.45 66.5797 83.8187L60.3297 62.9854C60.0651 62.1042 59.2526 61.5 58.3338 61.5H75.0005C74.0817 61.5 73.2692 62.1042 73.0047 62.9854L66.7547 83.8187C66.5651 84.45 66.6859 85.1333 67.0776 85.6604C67.4734 86.1896 68.0922 86.5 68.7505 86.5H97.9172C98.5755 86.5 99.1942 86.1896 99.5901 85.6604C99.9817 85.1333 100.103 84.45 99.913 83.8187ZM47.9172 61.5C48.5755 61.5 49.1942 61.1896 49.5901 60.6604C49.9817 60.1333 50.1026 59.45 49.913 58.8187L43.663 37.9854C43.3984 37.1042 42.5859 36.5 41.6672 36.5H58.3338C57.4151 36.5 56.6026 37.1042 56.338 37.9854L50.088 58.8187C49.8984 59.45 50.0192 60.1333 50.4109 60.6604C50.8067 61.1896 51.4255 61.5 52.0838 61.5H47.9172Z" fill="#F59E0B"/>
<path d="M97.9171 86.5007H6.25045C5.09836 86.5007 4.16711 85.5694 4.16711 84.4173C4.16711 83.2652 5.09836 82.334 6.25045 82.334H97.9171C99.0692 82.334 100 83.2652 100 84.4173C100 85.5694 99.0692 86.5007 97.9171 86.5007Z" fill="black"/>
<path d="M31.2505 86.4996C30.3463 86.4996 29.5151 85.91 29.2505 84.9975L24.438 68.4766C24.1171 67.3725 24.7505 66.2162 25.8567 65.8954C26.9609 65.5704 28.1171 66.2079 28.438 67.3141L33.2505 83.835C33.5713 84.9391 32.938 86.0954 31.8317 86.4162C31.6401 86.4725 31.4421 86.4996 31.2505 86.4996Z" fill="black"/>
<path d="M64.5838 86.4996C63.6797 86.4996 62.8484 85.91 62.5838 84.9975L57.7713 68.4766C57.4505 67.3725 58.0838 66.2162 59.1901 65.8954C60.2922 65.5704 61.4505 66.2079 61.7713 67.3141L66.5838 83.835C66.9047 84.9391 66.2713 86.0954 65.1651 86.4162C64.9734 86.4725 64.7755 86.4996 64.5838 86.4996Z" fill="black"/>
<path d="M81.2505 61.5007H22.9172C21.7651 61.5007 20.8339 60.5694 20.8339 59.4173C20.8339 58.2652 21.7651 57.334 22.9172 57.334H81.2505C82.4026 57.334 83.3339 58.2652 83.3339 59.4173C83.3339 60.5694 82.4026 61.5007 81.2505 61.5007Z" fill="black"/>
<path d="M81.2505 61.4996C80.3463 61.4996 79.5151 60.91 79.2505 59.9975L74.438 43.4766C74.1171 42.3725 74.7505 41.2162 75.8567 40.8954C76.9609 40.5704 78.1192 41.2079 78.438 42.3141L83.2505 58.835C83.5713 59.9391 82.938 61.0954 81.8317 61.4162C81.6401 61.4725 81.4421 61.4996 81.2505 61.4996Z" fill="black"/>
<path d="M47.9171 61.4996C47.0129 61.4996 46.1817 60.91 45.9171 59.9975L41.1046 43.4766C40.7838 42.3725 41.4171 41.2162 42.5233 40.8954C43.6296 40.5704 44.7838 41.2079 45.1046 42.3141L49.9171 58.835C50.2379 59.9391 49.6046 61.0954 48.4983 61.4162C48.3067 61.4725 48.1088 61.4996 47.9171 61.4996Z" fill="black"/>
<path d="M64.5838 36.5007H39.5838C38.4317 36.5007 37.5005 35.5694 37.5005 34.4173C37.5005 33.2652 38.4317 32.334 39.5838 32.334H64.5838C65.7359 32.334 66.6672 33.2652 66.6672 34.4173C66.6672 35.5694 65.7359 36.5007 64.5838 36.5007Z" fill="black"/>
<path d="M64.5838 36.4996C63.6797 36.4996 62.8484 35.91 62.5838 34.9975L57.7713 18.4766C57.4505 17.3725 58.0838 16.2162 59.1901 15.8954C60.2922 15.5704 61.4505 16.2079 61.7713 17.3141L66.5838 33.835C66.9047 34.9391 66.2713 36.0954 65.1651 36.4162C64.9734 36.4725 64.7755 36.4996 64.5838 36.4996Z" fill="black"/>
</g>
<defs>
<clipPath id="clip0_150_331">
<rect width="100" height="100" fill="white"/>
</clipPath>
</defs>
</svg>
